# xmcd
# 
# Track frame offsets:
#     150
#     16569
#     37984
#     56649
#     82887
#     100839
#     120247
#     141682
#     164917
#     181277
# 
# Disc length: 2572
# 
# Revision: 7
# Processed by: cddbd v1.5.2PL0 Copyright (c) Steve Scherf et al.
# Submitted via: fre:ac v1.0.27
# 
DISCID=7b0a0a0a
DTITLE=サザンオールスターズ - KAMAKURA [Disc 2]
DYEAR=1985
DGENRE=Rock
TTITLE0=顔
TTITLE1=Bye Bye My Love (U are the one)
TTITLE2=Brown Cherry
TTITLE3=Please!
TTITLE4=星空のビリー・ホリデイ
TTITLE5=最後の日射病
TTITLE6=夕陽に別れを告げて～メリーゴーランド
TTITLE7=怪物君の空
TTITLE8=Long-haired Lady
TTITLE9=悲しみはメリーゴーランド
EXTD=
EXTT0=
EXTT1=
EXTT2=
EXTT3=
EXTT4=
EXTT5=
EXTT6=
EXTT7=
EXTT8=
EXTT9=
PLAYORDER=
